<?xml version="1.0" encoding="UTF-8" standalone="no"?>
<!-- Created with Inkscape (http://www.inkscape.org/) -->

<svg
   width="152.77551mm"
   height="152.77547mm"
   viewBox="0 0 152.77551 152.77547"
   version="1.1"
   id="svg5"
   inkscape:export-filename="bimi-logo-for-emails.svg"
   inkscape:export-xdpi="96"
   inkscape:export-ydpi="96"
   xmlns:inkscape="http://www.inkscape.org/namespaces/inkscape"
   xmlns:sodipodi="http://sodipodi.sourceforge.net/DTD/sodipodi-0.dtd"
   xmlns:xlink="http://www.w3.org/1999/xlink"
   xmlns="http://www.w3.org/2000/svg"
   xmlns:svg="http://www.w3.org/2000/svg">
  <sodipodi:namedview
     id="namedview7"
     pagecolor="#ffffff"
     bordercolor="#000000"
     borderopacity="0.25"
     inkscape:showpageshadow="2"
     inkscape:pageopacity="0.0"
     inkscape:pagecheckerboard="0"
     inkscape:deskcolor="#d1d1d1"
     inkscape:document-units="mm"
     showgrid="false">
    <inkscape:grid
       type="xygrid"
       id="grid3012" />
  </sodipodi:namedview>
  <defs
     id="defs2">
    <linearGradient
       inkscape:collect="always"
       id="linearGradient2817">
      <stop
         style="stop-color:#000000;stop-opacity:1;"
         offset="0"
         id="stop2813" />
      <stop
         style="stop-color:#000000;stop-opacity:0;"
         offset="1"
         id="stop2815" />
    </linearGradient>
    <linearGradient
       inkscape:collect="always"
       xlink:href="#linearGradient2817"
       id="linearGradient2819"
       x1="2996.5183"
       y1="1060.7556"
       x2="3909.5884"
       y2="2228.939"
       gradientUnits="userSpaceOnUse" />
  </defs>
  <g
     inkscape:label="Layer 1"
     inkscape:groupmode="layer"
     id="layer1"
     transform="translate(-708.73732,-34.355454)">
    <circle
       style="fill:#d4e289;fill-opacity:1;stroke:none;stroke-width:5.05528;stroke-dasharray:none;stroke-opacity:1"
       id="circle3912"
       cx="785.12506"
       cy="110.74319"
       r="64.707535" />
    <circle
       style="fill:none;fill-opacity:1;stroke:#2aa83b;stroke-width:5.29167;stroke-dasharray:none;stroke-opacity:1"
       id="path111"
       cx="785.12506"
       cy="110.74319"
       r="67.73333" />
    <path
       style="fill:#2aa83b;fill-opacity:1;stroke:none;stroke-width:4.97073;stroke-dasharray:none;stroke-opacity:1"
       id="path3150"
       d="m 764.35456,80.83549 c 1.68898,2.711993 3.29419,5.503666 5.417,7.910224 0.55689,0.631312 1.16579,1.214747 1.74869,1.822119 2.13383,1.481284 3.44553,2.577554 6.10446,3.406616 2.34864,0.732322 5.23556,0.459767 7.5813,0.114191 3.79843,-0.55967 4.7689,-1.055832 8.40826,-2.258037 1.26318,-0.533258 2.5534,-1.00658 3.78958,-1.599772 3.0554,-1.466169 5.9264,-3.349889 8.51392,-5.534847 1.56949,-1.325322 1.82435,-1.681493 3.13774,-3.105712 0.63019,-0.934162 1.68772,-1.977536 1.77443,-3.188638 0.0172,-0.240995 0.0575,-0.557139 -0.12631,-0.713732 -1.62314,-1.381422 -1.63581,-1.130182 -3.21444,-0.908897 -1.51686,0.648179 -2.08202,0.777877 -3.44918,1.90733 -0.82754,0.683655 -1.58082,1.454556 -2.32405,2.229036 -0.89882,0.936616 -1.76619,1.904483 -2.59857,2.900612 -1.92673,2.305769 -4.32206,5.562069 -6.10839,7.939285 -3.74815,5.175982 -7.39445,10.425622 -11.15854,15.590112 -1.65984,2.27737 -6.90286,9.31736 -8.56516,11.4911 -1.56094,2.04117 -3.15684,4.05542 -4.73527,6.08314 -3.9331,4.81744 -5.11758,6.37817 -9.2097,10.96721 -1.36687,1.53283 -2.74741,3.05481 -4.17886,4.52754 -1.46225,1.50443 -5.06603,4.96495 -6.90412,6.36782 -0.84395,0.64415 -1.78822,1.145 -2.68233,1.71751 -2.01083,0.75987 -1.95189,1.01406 -3.9328,0.87264 -0.0626,-0.005 -0.0459,-0.11743 -0.0768,-0.17209 -0.26363,-0.46767 -0.65795,-0.87826 -0.80625,-1.39423 -0.4556,-1.58524 -0.0295,-2.7367 0.26307,-4.30563 0.46775,-0.90214 0.85467,-1.85102 1.40323,-2.7064 0.6291,-0.98095 1.35349,-1.90178 2.11677,-2.78236 2.62019,-3.02289 5.8493,-5.4379 9.15329,-7.65556 1.09017,-0.73175 2.21877,-1.40451 3.32816,-2.10676 4.36821,-2.7198 9.12171,-4.71199 13.8049,-6.80644 1.2816,-0.57317 2.57481,-1.12146 3.84124,-1.72733 1.43724,-0.6876 2.84523,-1.43476 4.26783,-2.15214 2.37695,-1.29104 6.50789,-3.48923 8.80807,-4.92039 1.60093,-0.9961 3.15485,-2.06654 4.70663,-3.13762 3.14589,-2.17142 6.10897,-4.34339 9.06645,-6.76734 1.45466,-1.19224 2.84983,-2.45526 4.27474,-3.682907 5.4021,-4.872983 10.46079,-10.152226 14.7668,-16.027857 0.58333,-0.795964 1.12728,-1.62006 1.69091,-2.430091 1.58081,-2.557801 3.01186,-5.214322 4.11446,-8.015175 0.39988,-1.015843 0.46995,-1.291348 0.77673,-2.267844 -0.44051,0.22411 0.52113,-0.987958 0.16745,-1.109767 -0.58349,-0.200927 -1.27336,-0.562995 -1.82806,-0.29259 -0.6619,0.322648 -0.86215,1.194253 -1.27392,1.804698 -0.71984,1.067175 -1.41116,2.153328 -2.12053,3.227508 -0.86771,1.313988 -1.74045,2.624655 -2.61067,3.936982 -1.00843,1.516237 -2.0115,3.03607 -3.02532,4.548711 -2.66076,3.969872 -3.70681,5.429371 -6.33375,9.469481 -1.47168,2.263349 -5.07714,7.96144 -6.50101,10.275261 -1.07834,1.7523 -2.12823,3.52196 -3.19233,5.28294 -2.22298,3.76346 -4.28292,7.31651 -6.62717,11.01242 -2.29871,3.62411 -4.81234,7.3389 -7.32053,10.82591 -2.62732,3.6526 -3.79799,5.0871 -6.48452,8.52638 -0.83786,1.02137 -1.67574,2.04273 -2.51359,3.06412 -0.61585,0.72117 -1.24132,1.43424 -1.84755,2.1635 -0.14458,0.17389 -0.61742,0.4704 -0.40395,0.54498 2.25733,0.78861 2.49846,-0.24243 4.00981,-1.63639 0.91494,-0.84388 1.83131,-1.6862 2.74697,-2.5293 4.26177,-3.97436 8.86009,-7.56601 13.6011,-10.94745 3.04457,-2.17148 6.63911,-4.57177 9.86475,-6.50636 1.36738,-0.82009 2.77753,-1.56673 4.1663,-2.35008 2.52287,-1.27354 3.75924,-1.96186 6.27175,-3.01329 0.57876,-0.24219 2.91275,-1.63449 3.69496,-0.25748 0.21202,0.37323 -0.45288,0.75641 -0.51192,1.18154 -0.12,0.86452 -0.0102,1.74558 -0.0154,2.61838 -0.61656,3.43065 -0.45625,3.10731 -1.51463,6.55844 -0.33322,1.0865 -0.72743,2.15334 -1.08603,3.23173 -0.34316,1.03202 -0.71113,2.05644 -1.01928,3.09946 -0.76926,2.60397 -0.80258,3.11548 -1.29298,5.70345 -0.0102,0.87645 -0.14167,1.75977 -0.0319,2.62939 0.25209,1.99707 1.07901,3.9465 2.39618,5.48205 0.85043,0.99141 1.95573,1.73194 2.9336,2.59791 0,0 1.02505,0.41718 1.02505,0.41718 v 0 c -0.96085,-0.84622 -2.04763,-1.56799 -2.88255,-2.53866 -1.291,-1.50094 -2.10636,-3.44083 -2.36441,-5.39294 -0.11436,-0.86508 0.005,-1.74522 0.009,-2.61783 0.46444,-2.63099 0.47262,-3.06691 1.238,-5.71489 0.3022,-1.04551 0.66538,-2.07244 1.00459,-3.10656 1.05429,-3.2142 2.21478,-6.41409 2.69377,-9.78159 0.0328,-0.87544 0.36337,-1.79134 0.0983,-2.62633 -0.35908,-1.1311 -1.59911,-3.21638 -3.24463,-3.02093 -0.76122,0.0905 -1.42713,0.56188 -2.12586,0.87714 -2.47639,1.11734 -3.6273,1.79243 -6.12088,3.12359 -1.36493,0.80058 -2.74945,1.56863 -4.09477,2.40174 -3.26685,2.02304 -6.65495,4.34713 -9.77534,6.57011 -3.37992,2.40786 -6.95379,5.05048 -10.18719,7.6637 -1.25202,1.01188 -2.45331,2.08498 -3.67994,3.12746 -0.9533,0.81923 -1.89935,1.64699 -2.85987,2.45772 -1.24206,1.04837 -2.75223,1.27523 -1.67744,3.02025 0.11624,0.18864 0.0601,-0.4549 0.18366,-0.63877 1.26076,-1.87537 2.97257,-3.42316 4.16613,-5.34813 2.38875,-3.17694 4.02156,-5.30397 6.35497,-8.6081 4.98586,-7.06003 9.64666,-14.34735 13.96589,-21.83371 2.62726,-4.32497 3.7014,-6.1433 6.40478,-10.39653 4.10942,-6.465374 8.44016,-12.785513 12.78162,-19.096189 1.54089,-2.226304 3.30639,-4.840603 4.96548,-7.018401 0.44261,-0.580975 1.23297,-0.976556 1.39654,-1.688366 0.10139,-0.44126 -0.46912,-0.777098 -0.74801,-1.133767 -0.2224,-0.284428 1.11461,2.224944 -0.0661,1.081152 -0.2735,0.9839 -0.33467,1.268437 -0.70677,2.291472 -1.02693,2.823363 -2.41396,5.500829 -3.98259,8.058994 -1.60022,2.388591 -1.84681,2.841472 -3.68803,5.209113 -3.75328,4.826388 -7.98223,9.266785 -12.5046,13.376928 -1.42352,1.226737 -2.81704,2.489184 -4.27055,3.680214 -1.45874,1.19529 -2.95204,2.34874 -4.46352,3.47656 -2.93699,2.19152 -6.23638,4.46321 -9.35953,6.38064 -2.86477,1.75879 -5.86726,3.31332 -8.82713,4.90076 -1.43943,0.70461 -2.86741,1.4331 -4.31828,2.11383 -1.27295,0.59724 -2.56584,1.15102 -3.85189,1.71949 -4.69842,2.07671 -9.47731,4.04635 -13.82834,6.81091 -1.10425,0.70769 -2.22598,1.3888 -3.31274,2.12307 -2.00328,1.35349 -4.80334,3.37606 -6.60629,4.99378 -1.6608,1.49016 -3.54335,3.56039 -4.79098,5.42876 -0.57089,0.85494 -0.99221,1.8008 -1.4883,2.70118 -0.32073,1.55278 -0.77411,2.7618 -0.37557,4.35274 0.39187,1.56427 1.71313,2.42142 3.20736,2.90273 1.17843,0.37957 2.9398,-0.6373 3.8405,-1.01777 0.86654,-0.59623 1.78279,-1.12598 2.5996,-1.78867 1.69264,-1.37324 5.39917,-5.08138 6.72369,-6.49036 1.40325,-1.49272 2.75485,-3.03349 4.10332,-4.57587 4.44609,-5.08544 4.83391,-5.67525 9.14232,-11.0115 1.59109,-2.02069 3.20079,-4.02685 4.77327,-6.06205 1.4911,-1.92987 2.95361,-3.88173 4.41704,-5.83266 2.42094,-3.22744 5.89556,-7.94473 8.27393,-11.21513 1.23087,-1.69251 2.43957,-3.401105 3.67243,-5.092166 1.177,-1.614405 2.37138,-3.216059 3.55706,-4.824091 2.27762,-2.977104 3.78572,-5.050608 6.22721,-7.856968 0.85303,-0.980522 1.73244,-1.940005 2.6563,-2.854101 1.44159,-1.426332 2.53913,-2.429892 4.29866,-3.331081 0.51143,-0.26195 1.07322,-0.41104 1.60983,-0.616559 0.40809,-0.02963 0.88775,0.143805 1.22426,-0.08893 0.1742,-0.120471 -0.29038,-0.573699 -0.45635,-0.44213 -0.17957,0.142337 0.17859,0.435443 0.17575,0.66456 -0.0136,1.156833 -1.06487,2.294345 -1.64069,3.187803 -1.24694,1.421256 -1.52909,1.827291 -3.03482,3.144789 -2.52969,2.213429 -5.36865,4.104496 -8.39174,5.576902 -1.22534,0.5968 -2.50574,1.073174 -3.75861,1.60976 -1.38899,0.454555 -2.75392,0.990616 -4.16698,1.363667 -2.44289,0.644924 -5.84519,1.225586 -8.39879,1.147598 -1.12395,-0.03431 -3.91068,-0.425287 -5.20648,-1.130249 -0.81387,-0.442784 -1.52889,-1.047047 -2.29335,-1.570569 -0.58193,-0.603001 -1.19077,-1.181129 -1.74577,-1.809003 -2.07683,-2.349563 -3.67502,-5.072021 -5.21144,-7.790305 0,0 -1.36721,-0.615608 -1.36721,-0.615608 z" />
    <path
       style="fill:none;fill-opacity:1;stroke:#7ecf5a;stroke-width:2.24974;stroke-dasharray:none;stroke-opacity:1"
       id="path3839"
       d="m 761.70456,76.709081 c 1.75801,2.871165 3.42884,5.826687 5.63842,8.37449 0.57965,0.668365 1.21344,1.286043 1.82017,1.929063 2.22105,1.568223 3.58636,2.728836 6.35398,3.606557 2.44464,0.775303 5.44956,0.486751 7.89118,0.120893 3.95369,-0.592518 4.96383,-1.117801 8.75195,-2.390566 1.31481,-0.564556 2.65777,-1.065658 3.94448,-1.693665 3.18029,-1.552221 6.16864,-3.546501 8.86193,-5.859698 1.63364,-1.403108 1.89892,-1.780183 3.26599,-3.287992 0.65595,-0.98899 1.75671,-2.093601 1.84696,-3.375785 0.0179,-0.25514 0.0598,-0.589839 -0.13147,-0.755623 -1.68948,-1.4625 -1.70267,-1.196514 -3.34583,-0.962242 -1.57886,0.686222 -2.16712,0.823533 -3.59016,2.019275 -0.86137,0.72378 -1.64544,1.539927 -2.41905,2.359863 -0.93556,0.991587 -1.83838,2.01626 -2.70479,3.070854 -2.00548,2.441099 -4.49872,5.888518 -6.35807,8.405257 -3.90136,5.47977 -7.6967,11.037521 -11.61465,16.505128 -1.72768,2.41103 -7.18501,9.86421 -8.91526,12.16553 -1.62474,2.16097 -3.28587,4.29344 -4.92882,6.44017 -4.09387,5.10019 -5.32676,6.75252 -9.58615,11.6109 -1.42274,1.62279 -2.85971,3.2341 -4.34967,4.79327 -1.52202,1.59273 -5.27311,5.25635 -7.18633,6.74156 -0.87845,0.68196 -1.86131,1.2122 -2.79197,1.81831 -2.09302,0.80447 -2.03167,1.07358 -4.09355,0.92386 -0.0652,-0.005 -0.0478,-0.12432 -0.0799,-0.18219 -0.27441,-0.49512 -0.68485,-0.92981 -0.83921,-1.47606 -0.47422,-1.67828 -0.0307,-2.89732 0.27382,-4.55834 0.48687,-0.95508 0.88961,-1.95966 1.46059,-2.86524 0.65482,-1.03852 1.40882,-2.0134 2.2033,-2.94566 2.72729,-3.20031 6.08839,-5.75706 9.52743,-8.10488 1.13473,-0.7747 2.30946,-1.48694 3.4642,-2.23041 4.54676,-2.87943 9.49456,-4.98855 14.36917,-7.20592 1.33399,-0.60681 2.68006,-1.18728 3.99825,-1.82871 1.49599,-0.72796 2.96153,-1.51897 4.44228,-2.27846 2.47411,-1.36681 6.7739,-3.69402 9.1681,-5.20917 1.66637,-1.05457 3.28381,-2.18783 4.89902,-3.32178 3.27448,-2.29886 6.35867,-4.59831 9.43704,-7.164526 1.51412,-1.262215 2.96632,-2.599364 4.44947,-3.899064 5.62291,-5.158987 10.88838,-10.748079 15.3704,-16.968562 0.60717,-0.842681 1.17335,-1.715144 1.76002,-2.572718 1.64543,-2.707923 3.13497,-5.52036 4.28264,-8.485601 0.41623,-1.075464 0.48916,-1.367139 0.80848,-2.400948 -0.45852,0.237264 0.54243,-1.045943 0.1743,-1.174901 -0.60735,-0.21272 -1.32541,-0.596038 -1.90279,-0.309763 -0.68895,0.341585 -0.89739,1.264346 -1.32599,1.91062 -0.74926,1.129809 -1.46884,2.27971 -2.20721,3.416936 -0.90317,1.391109 -1.81159,2.778701 -2.71738,4.168051 -1.04965,1.605228 -2.09372,3.214263 -3.14898,4.815684 -2.76952,4.202871 -3.85832,5.748031 -6.59264,10.025262 -1.53184,2.39619 -5.28467,8.428713 -6.76674,10.878336 -1.12242,1.855144 -2.21522,3.728674 -3.32282,5.593004 -2.31384,3.98435 -4.45798,7.74593 -6.89805,11.65876 -2.39267,3.83682 -5.00905,7.76964 -7.61976,11.46131 -2.73471,3.86697 -3.95323,5.38567 -6.74958,9.0268 -0.8721,1.08132 -1.74423,2.16263 -2.61633,3.24396 -0.64102,0.7635 -1.29206,1.51842 -1.92307,2.29048 -0.15049,0.1841 -0.64266,0.49801 -0.42046,0.57697 2.3496,0.83489 2.60058,-0.25666 4.17371,-1.73243 0.95234,-0.89341 1.90617,-1.78517 2.85925,-2.67775 4.43597,-4.20763 9.22225,-8.01008 14.15705,-11.58998 3.16902,-2.29893 6.91048,-4.8401 10.26797,-6.88823 1.42328,-0.86822 2.89107,-1.65868 4.3366,-2.48801 2.62599,-1.34829 3.9129,-2.07701 6.52811,-3.19015 0.60242,-0.2564 3.03181,-1.73042 3.84599,-0.27259 0.22069,0.39514 -0.47139,0.80081 -0.53284,1.25089 -0.12491,0.91526 -0.0106,1.84803 -0.016,2.77206 -0.64176,3.632 -0.4749,3.28968 -1.57654,6.94336 -0.34684,1.15027 -0.75717,2.27973 -1.13042,3.42141 -0.35719,1.09259 -0.7402,2.17714 -1.06095,3.28137 -0.8007,2.7568 -0.83538,3.29834 -1.34583,6.0382 -0.0106,0.92789 -0.14746,1.86305 -0.0332,2.78371 0.26239,2.11428 1.12311,4.17813 2.49412,5.80381 0.88519,1.04959 2.03567,1.83359 3.05351,2.75038 0,0 1.06695,0.44167 1.06695,0.44167 v 0 c -1.00012,-0.89589 -2.13132,-1.66002 -3.00037,-2.68766 -1.34377,-1.58904 -2.19246,-3.64278 -2.46106,-5.70946 -0.11903,-0.91586 0.005,-1.84765 0.009,-2.77148 0.48342,-2.78541 0.49194,-3.24691 1.2886,-6.05031 0.31456,-1.10687 0.69258,-2.19407 1.04566,-3.28889 1.09738,-3.40284 2.30531,-6.79054 2.80387,-10.35569 0.0341,-0.92682 0.37823,-1.89647 0.10232,-2.78047 -0.37376,-1.19749 -1.66447,-3.40516 -3.37725,-3.19824 -0.79234,0.0958 -1.48547,0.59486 -2.21276,0.92863 -2.57761,1.18291 -3.77556,1.89763 -6.37107,3.30691 -1.42072,0.84757 -2.86183,1.6607 -4.26214,2.54271 -3.40039,2.14177 -6.92698,4.60227 -10.17491,6.95572 -3.51808,2.54918 -7.23803,5.3469 -10.60359,8.1135 -1.3032,1.07127 -2.55359,2.20735 -3.83036,3.31101 -0.99227,0.86732 -1.97699,1.74366 -2.97677,2.60197 -1.29283,1.1099 -2.86473,1.35008 -1.74601,3.19752 0.121,0.19971 0.0626,-0.4816 0.19117,-0.67626 1.3123,-1.98544 3.09408,-3.62408 4.33642,-5.66203 2.48639,-3.3634 4.18594,-5.61527 6.61473,-9.11332 5.18966,-7.4744 10.04097,-15.18943 14.53675,-23.11517 2.73465,-4.57882 3.8527,-6.503867 6.66658,-11.006727 4.27739,-6.844839 8.78515,-13.535919 13.30407,-20.216981 1.60387,-2.35697 3.44154,-5.124707 5.16844,-7.430324 0.4607,-0.615073 1.28337,-1.033872 1.45363,-1.787459 0.10553,-0.467159 -0.4883,-0.822708 -0.77859,-1.20031 -0.23149,-0.301122 1.16017,2.35553 -0.0688,1.144607 -0.28468,1.041647 -0.34835,1.342884 -0.73566,2.425963 -1.06891,2.989071 -2.51263,5.823683 -4.14538,8.531991 -1.66563,2.528782 -1.9223,3.008244 -3.83878,5.514846 -3.90669,5.109658 -8.3085,9.81067 -13.01573,14.162045 -1.4817,1.298737 -2.93218,2.635279 -4.4451,3.896213 -1.51837,1.265446 -3.07271,2.486596 -4.64597,3.680606 -3.05704,2.32014 -6.49129,4.72516 -9.7421,6.75513 -2.98187,1.86202 -6.10709,3.50779 -9.18794,5.1884 -1.49827,0.74596 -2.98462,1.51721 -4.49479,2.23789 -1.32499,0.63229 -2.67072,1.21858 -4.00934,1.82041 -4.89047,2.1986 -9.8647,4.28384 -14.39358,7.21066 -1.14938,0.74922 -2.31696,1.47031 -3.44814,2.24767 -2.08517,1.43293 -4.99968,3.57421 -6.87633,5.28688 -1.72868,1.57762 -3.68818,3.76935 -4.98681,5.74738 -0.59422,0.90512 -1.03277,1.9065 -1.54913,2.85972 -0.33384,1.64392 -0.80576,2.9239 -0.39093,4.60821 0.40789,1.65608 1.78316,2.56354 3.33847,3.0731 1.22659,0.40185 3.05996,-0.67471 3.99748,-1.07751 0.90196,-0.63122 1.85566,-1.19206 2.70586,-1.89365 1.76182,-1.45384 5.61986,-5.37961 6.99852,-6.87129 1.46061,-1.58033 2.86745,-3.21153 4.27104,-4.84444 4.62783,-5.38391 5.0315,-6.00834 9.51601,-11.65778 1.65613,-2.13929 3.33163,-4.2632 4.96838,-6.41785 1.55205,-2.04313 3.07434,-4.10955 4.59759,-6.17498 2.5199,-3.41687 6.13654,-8.41103 8.61213,-11.873372 1.28118,-1.791847 2.53929,-3.600723 3.82254,-5.391035 1.22511,-1.709158 2.46831,-3.404816 3.70245,-5.107226 2.37072,-3.151836 3.94047,-5.347038 6.48175,-8.318109 0.8879,-1.03807 1.80326,-2.053867 2.76488,-3.021613 1.50051,-1.510046 2.64292,-2.572507 4.47437,-3.526589 0.53233,-0.277324 1.11709,-0.435165 1.67563,-0.652746 0.42477,-0.03137 0.92404,0.152245 1.2743,-0.09415 0.18132,-0.127542 -0.30225,-0.607371 -0.475,-0.46808 -0.18691,0.150691 0.18589,0.461 0.18293,0.703565 -0.0141,1.224729 -1.1084,2.429004 -1.70775,3.374901 -1.29791,1.504672 -1.59159,1.934538 -3.15887,3.329362 -2.63309,2.34334 -5.58809,4.345397 -8.73475,5.904221 -1.27543,0.631828 -2.60817,1.136161 -3.91225,1.70424 -1.44576,0.481234 -2.86648,1.048757 -4.3373,1.443703 -2.54275,0.682776 -6.08412,1.297518 -8.7421,1.214953 -1.16989,-0.03632 -4.07052,-0.450248 -5.41929,-1.196585 -0.84714,-0.468772 -1.59138,-1.1085 -2.38709,-1.662749 -0.60572,-0.638392 -1.23944,-1.250452 -1.81713,-1.915177 -2.16172,-2.487463 -3.82524,-5.369707 -5.42446,-8.247533 0,0 -1.42309,-0.651739 -1.42309,-0.651739 z" />
    <circle
       style="fill:none;fill-opacity:1;stroke:#2aa83b;stroke-width:5.74344;stroke-dasharray:none;stroke-opacity:0"
       id="circle3841"
       cx="785.12506"
       cy="110.74319"
       r="73.516014" />
  </g>
</svg>
